<svg xmlns="http://www.w3.org/2000/svg" viewBox="0 0 1200 300" role="img" aria-labelledby="title desc">
  <title id="title">Minimal black and white mountain landscape</title>
  <desc id="desc">A monochrome landscape with layered mountains and a winding river.</desc>
  <defs>
    <linearGradient id="sky" x1="0" y1="0" x2="0" y2="1">
      <stop offset="0" stop-color="#f4f4f0"/>
      <stop offset="1" stop-color="#8f8f8a"/>
    </linearGradient>
    <linearGradient id="water" x1="0" y1="0" x2="0" y2="1">
      <stop offset="0" stop-color="#dadad5"/>
      <stop offset="1" stop-color="#252525"/>
    </linearGradient>
  </defs>
  <rect width="1200" height="300" fill="#111318"/>
  <rect x="12" y="12" width="1176" height="276" rx="4" fill="url(#sky)"/>
  <path d="M12 190 C95 184 145 151 220 164 C284 175 318 215 384 196 C446 178 467 135 542 153 C618 171 648 210 727 198 C810 186 862 138 936 155 C1010 171 1045 199 1188 174 L1188 288 L12 288Z" fill="#151515"/>
  <path d="M12 218 C112 211 160 185 238 197 C309 208 337 241 419 221 C496 202 548 168 617 185 C700 205 749 245 830 225 C921 202 959 176 1048 194 C1110 206 1148 216 1188 205 L1188 288 L12 288Z" fill="#050505"/>
  <path d="M568 288 C602 270 648 254 685 238 C718 224 735 218 758 209 C726 232 720 245 746 253 C776 263 808 266 866 288Z" fill="url(#water)" opacity=".95"/>
  <path d="M620 260 C671 250 720 250 778 257 M650 274 C706 267 772 270 824 279" fill="none" stroke="#eeeeea" stroke-width="3" opacity=".7"/>
</svg>
